M48
METRIC,LZ,000.000
;FILE_FORMAT=3:3
;TYPE=PLATED
;Layer: PTH_Through
;EasyEDA v6.4.31, 2022-01-29 23:58:21
;2823f7ec020141a2b4db78c869935daf,00a5ad12733442db97615573759eb5db,10
;Gerber Generator version 0.2
;Holesize 1 = 0.800 mm
T01C0.800
;Holesize 2 = 0.889 mm
T02C0.889
;Holesize 3 = 0.901 mm
T03C0.901
;Holesize 4 = 0.915 mm
T04C0.915
;Holesize 5 = 1.000 mm
T05C1.000
;Holesize 6 = 1.101 mm
T06C1.101
;Holesize 7 = 1.200 mm
T07C1.200
%
G05
G90
T01
X021475Y011811
X022975Y011811
T02
X009906Y002794
X007366Y002794
X004826Y002794
X002286Y002794
T03
X019304Y037445
X019304Y034945
X014191Y029337
X006891Y029337
X022987Y031148
X022987Y038448
X002286Y017305
X002286Y024605
X005080Y017305
X005080Y024605
X002921Y014191
X002921Y006891
X014191Y033401
X006891Y033401
T04
X019177Y029083
X019177Y031623
X001651Y028067
X004191Y028067
X001651Y034290
X004191Y034290
X022972Y006350
X020970Y006350
T05
X010454Y026035
X015454Y026035
T06
X015240Y037211
X012700Y037211
X010160Y037211
X009017Y021971
X009017Y019431
X016637Y019431
X016637Y021971
X009017Y016891
X009017Y014351
X016637Y016891
X016637Y014351
T07
X021209Y025019
X021209Y022479
X021209Y019939
X014224Y002794
X016764Y002794
M30
