G04 Layer: TopSilkscreenLayer*
G04 EasyEDA v6.4.31, 2022-01-29 23:58:21*
G04 2823f7ec020141a2b4db78c869935daf,00a5ad12733442db97615573759eb5db,10*
G04 Gerber Generator version 0.2*
G04 Scale: 100 percent, Rotated: No, Reflected: No *
G04 Dimensions in millimeters *
G04 leading zeros omitted , absolute positions ,4 integer and 5 decimal *
%FSLAX45Y45*%
%MOMM*%

%ADD10C,0.2540*%
%ADD21C,0.2032*%
%ADD22C,0.2030*%
%ADD23C,0.1524*%

%LPD*%
G36*
X1004569Y856234D02*
G01*
X997712Y856030D01*
X991158Y855522D01*
X984859Y854608D01*
X978916Y853389D01*
X973328Y851763D01*
X967994Y849833D01*
X963015Y847547D01*
X958342Y844905D01*
X954074Y841908D01*
X950061Y838606D01*
X946454Y834898D01*
X943203Y830884D01*
X940308Y826516D01*
X937768Y821842D01*
X935634Y816813D01*
X933856Y811428D01*
X932484Y805738D01*
X931468Y799693D01*
X930859Y793343D01*
X930656Y786638D01*
X930656Y767080D01*
X944626Y767080D01*
X944626Y785368D01*
X944880Y791921D01*
X945642Y798017D01*
X946912Y803706D01*
X948639Y808939D01*
X950874Y813765D01*
X953566Y818184D01*
X956716Y822147D01*
X960323Y825703D01*
X964387Y828802D01*
X968857Y831494D01*
X973785Y833780D01*
X979119Y835660D01*
X984910Y837082D01*
X991057Y838149D01*
X997610Y838758D01*
X1004569Y838962D01*
X1011478Y838758D01*
X1018082Y838149D01*
X1024280Y837082D01*
X1030122Y835660D01*
X1035558Y833780D01*
X1040587Y831494D01*
X1045210Y828802D01*
X1049375Y825703D01*
X1053134Y822147D01*
X1056386Y818184D01*
X1059230Y813765D01*
X1061516Y808939D01*
X1063396Y803706D01*
X1064717Y798017D01*
X1065530Y791921D01*
X1065784Y785368D01*
X1065784Y767080D01*
X930656Y767080D01*
X930656Y750062D01*
X1079500Y750062D01*
X1079500Y787400D01*
X1079296Y794004D01*
X1078687Y800252D01*
X1077620Y806196D01*
X1076198Y811834D01*
X1074369Y817118D01*
X1072134Y822096D01*
X1069543Y826719D01*
X1066596Y831037D01*
X1063244Y835050D01*
X1059535Y838657D01*
X1055522Y841959D01*
X1051153Y844956D01*
X1046429Y847598D01*
X1041349Y849884D01*
X1036015Y851814D01*
X1030325Y853389D01*
X1024331Y854608D01*
X1018032Y855522D01*
X1011428Y856030D01*
G37*
G36*
X930656Y708660D02*
G01*
X930656Y692658D01*
X1016914Y692708D01*
X1040384Y693775D01*
X1057656Y694944D01*
X1057656Y693928D01*
X1027176Y677672D01*
X930656Y621538D01*
X930656Y604266D01*
X1079500Y604266D01*
X1079500Y620014D01*
X992174Y619963D01*
X975055Y619302D01*
X952753Y617982D01*
X952753Y618998D01*
X983234Y635254D01*
X1079500Y691134D01*
X1079500Y708660D01*
G37*
G36*
X1003300Y568198D02*
G01*
X1003300Y520192D01*
X1017269Y520192D01*
X1017269Y552704D01*
X1057910Y552704D01*
X1061821Y547268D01*
X1064818Y540359D01*
X1066647Y532536D01*
X1067308Y524256D01*
X1067003Y518363D01*
X1066190Y512826D01*
X1064818Y507593D01*
X1062939Y502767D01*
X1060551Y498246D01*
X1057656Y494080D01*
X1054303Y490321D01*
X1050442Y486867D01*
X1046175Y483870D01*
X1041450Y481177D01*
X1036319Y478942D01*
X1030782Y477062D01*
X1024839Y475589D01*
X1018540Y474573D01*
X1011834Y473913D01*
X1004824Y473709D01*
X997813Y473964D01*
X991158Y474624D01*
X984859Y475742D01*
X978966Y477266D01*
X973429Y479247D01*
X968349Y481584D01*
X963676Y484327D01*
X959459Y487476D01*
X955649Y490931D01*
X952347Y494741D01*
X949502Y498906D01*
X947115Y503377D01*
X945286Y508203D01*
X943914Y513283D01*
X943102Y518617D01*
X942848Y524256D01*
X943965Y534873D01*
X947013Y543661D01*
X951534Y550976D01*
X957071Y557022D01*
X946150Y566420D01*
X942898Y562965D01*
X939698Y559054D01*
X936650Y554634D01*
X933907Y549706D01*
X931570Y544169D01*
X929741Y538073D01*
X928522Y531368D01*
X928116Y524001D01*
X928319Y518159D01*
X928979Y512521D01*
X930046Y507085D01*
X931519Y501853D01*
X933450Y496824D01*
X935736Y492048D01*
X938377Y487476D01*
X941476Y483209D01*
X944880Y479196D01*
X948690Y475437D01*
X952855Y472033D01*
X957376Y468884D01*
X962202Y466090D01*
X967384Y463600D01*
X972921Y461467D01*
X978712Y459689D01*
X984859Y458266D01*
X991311Y457250D01*
X998067Y456641D01*
X1005078Y456438D01*
X1012190Y456641D01*
X1018946Y457250D01*
X1025448Y458216D01*
X1031595Y459587D01*
X1037437Y461314D01*
X1042974Y463397D01*
X1048156Y465835D01*
X1053033Y468579D01*
X1057503Y471627D01*
X1061669Y475030D01*
X1065428Y478688D01*
X1068832Y482600D01*
X1071880Y486816D01*
X1074521Y491286D01*
X1076807Y495960D01*
X1078687Y500938D01*
X1080109Y506069D01*
X1081176Y511454D01*
X1081836Y516991D01*
X1082040Y522732D01*
X1081735Y529996D01*
X1080770Y536854D01*
X1079246Y543356D01*
X1077264Y549351D01*
X1074775Y554888D01*
X1071880Y559917D01*
X1068578Y564337D01*
X1065022Y568198D01*
G37*
G36*
X806704Y801624D02*
G01*
X796290Y792226D01*
X800150Y788466D01*
X803554Y784555D01*
X806450Y780542D01*
X808888Y776274D01*
X810818Y771855D01*
X812190Y767130D01*
X813003Y762203D01*
X813308Y756920D01*
X813003Y751586D01*
X812190Y746506D01*
X810818Y741680D01*
X808939Y737158D01*
X806551Y732942D01*
X803656Y729030D01*
X800303Y725474D01*
X796442Y722223D01*
X792175Y719328D01*
X787450Y716737D01*
X782320Y714552D01*
X776782Y712724D01*
X770839Y711301D01*
X764540Y710285D01*
X757834Y709625D01*
X750824Y709422D01*
X743813Y709625D01*
X737158Y710285D01*
X730859Y711352D01*
X724966Y712876D01*
X719429Y714756D01*
X714349Y716991D01*
X709676Y719632D01*
X705459Y722579D01*
X701649Y725932D01*
X698347Y729589D01*
X695502Y733552D01*
X693115Y737819D01*
X691286Y742391D01*
X689914Y747217D01*
X689102Y752348D01*
X688848Y757682D01*
X689914Y766876D01*
X692810Y775055D01*
X697331Y782218D01*
X703072Y788416D01*
X692150Y797814D01*
X688695Y794410D01*
X685342Y790498D01*
X682294Y786130D01*
X679602Y781253D01*
X677367Y775919D01*
X675589Y770178D01*
X674522Y763981D01*
X674116Y757428D01*
X674319Y751890D01*
X674979Y746455D01*
X676046Y741222D01*
X677519Y736193D01*
X679450Y731367D01*
X681736Y726744D01*
X684377Y722376D01*
X687476Y718210D01*
X690880Y714298D01*
X694690Y710692D01*
X698855Y707339D01*
X703376Y704291D01*
X708202Y701548D01*
X713384Y699160D01*
X718921Y697077D01*
X724712Y695350D01*
X730859Y693978D01*
X737311Y692962D01*
X744067Y692353D01*
X751078Y692150D01*
X758190Y692353D01*
X764946Y692962D01*
X771448Y693928D01*
X777595Y695248D01*
X783437Y696976D01*
X788974Y699008D01*
X794156Y701395D01*
X799033Y704088D01*
X803503Y707085D01*
X807669Y710336D01*
X811428Y713892D01*
X814832Y717702D01*
X817880Y721766D01*
X820521Y726084D01*
X822807Y730605D01*
X824687Y735380D01*
X826109Y740308D01*
X827176Y745439D01*
X827836Y750722D01*
X828040Y756158D01*
X827684Y763168D01*
X826617Y769772D01*
X824890Y775970D01*
X822502Y781761D01*
X819505Y787196D01*
X815848Y792327D01*
X811580Y797102D01*
G37*
G36*
X806704Y678688D02*
G01*
X796290Y669544D01*
X800150Y665784D01*
X803554Y661873D01*
X806450Y657860D01*
X808888Y653592D01*
X810818Y649173D01*
X812190Y644448D01*
X813003Y639521D01*
X813308Y634238D01*
X813003Y628904D01*
X812190Y623824D01*
X810818Y618998D01*
X808939Y614476D01*
X806551Y610260D01*
X803656Y606348D01*
X800303Y602792D01*
X796442Y599541D01*
X792175Y596646D01*
X787450Y594055D01*
X782320Y591870D01*
X776782Y590042D01*
X770839Y588619D01*
X764540Y587603D01*
X757834Y586943D01*
X750824Y586740D01*
X743813Y586943D01*
X737158Y587603D01*
X730859Y588670D01*
X724966Y590194D01*
X719429Y592074D01*
X714349Y594309D01*
X709676Y596950D01*
X705459Y599897D01*
X701649Y603250D01*
X698347Y606907D01*
X695502Y610870D01*
X693115Y615137D01*
X691286Y619709D01*
X689914Y624535D01*
X689102Y629666D01*
X688848Y635000D01*
X689914Y644194D01*
X692810Y652373D01*
X697331Y659536D01*
X703072Y665734D01*
X692150Y675132D01*
X688695Y671677D01*
X685342Y667715D01*
X682294Y663295D01*
X679602Y658469D01*
X677367Y653186D01*
X675589Y647446D01*
X674522Y641299D01*
X674116Y634746D01*
X674319Y629208D01*
X674979Y623773D01*
X676046Y618540D01*
X677519Y613511D01*
X679450Y608685D01*
X681736Y604062D01*
X684377Y599694D01*
X687476Y595528D01*
X690880Y591616D01*
X694690Y588010D01*
X698855Y584657D01*
X703376Y581609D01*
X708202Y578866D01*
X713384Y576478D01*
X718921Y574395D01*
X724712Y572668D01*
X730859Y571296D01*
X737311Y570280D01*
X744067Y569671D01*
X751078Y569468D01*
X758190Y569671D01*
X764946Y570280D01*
X771448Y571246D01*
X777595Y572566D01*
X783437Y574294D01*
X788974Y576326D01*
X794156Y578713D01*
X799033Y581406D01*
X803503Y584403D01*
X807669Y587654D01*
X811428Y591210D01*
X814832Y595020D01*
X817880Y599084D01*
X820521Y603402D01*
X822807Y607923D01*
X824687Y612698D01*
X826109Y617626D01*
X827176Y622757D01*
X827836Y628040D01*
X828040Y633476D01*
X827684Y640486D01*
X826617Y647090D01*
X824890Y653237D01*
X822502Y659028D01*
X819505Y664464D01*
X815848Y669493D01*
X811580Y674268D01*
G37*
G36*
X676656Y559562D02*
G01*
X676656Y542544D01*
X801573Y505002D01*
X807974Y502920D01*
X807974Y502158D01*
X783488Y494741D01*
X758952Y487680D01*
X676656Y462534D01*
X676656Y445008D01*
X825500Y492759D01*
X825500Y512064D01*
G37*
G36*
X120904Y580644D02*
G01*
X120904Y566420D01*
X166116Y566420D01*
X166116Y431800D01*
X183134Y431800D01*
X183134Y566420D01*
X228600Y566420D01*
X228600Y580644D01*
G37*
G36*
X236728Y580644D02*
G01*
X277622Y508508D01*
X234188Y431800D01*
X251714Y431800D01*
X274320Y473201D01*
X286512Y497332D01*
X287274Y497332D01*
X300228Y473201D01*
X323088Y431800D01*
X341376Y431800D01*
X297688Y507746D01*
X338582Y580644D01*
X321056Y580644D01*
X297434Y536092D01*
X289560Y519684D01*
X288544Y519684D01*
X282295Y531114D01*
X276606Y541020D01*
X255524Y580644D01*
G37*
G36*
X422656Y736092D02*
G01*
X422656Y720090D01*
X517347Y701344D01*
X553720Y694944D01*
X553720Y693928D01*
X505459Y682752D01*
X422656Y661416D01*
X422656Y645922D01*
X511403Y623417D01*
X553720Y613918D01*
X553720Y613156D01*
X505459Y604012D01*
X422656Y587502D01*
X422656Y570230D01*
X571500Y602488D01*
X571500Y622046D01*
X478790Y645160D01*
X445008Y653034D01*
X445008Y653796D01*
X478790Y661162D01*
X571500Y684784D01*
X571500Y704850D01*
G37*
G36*
X532384Y555752D02*
G01*
X524662Y555142D01*
X517906Y553364D01*
X512064Y550519D01*
X507034Y546760D01*
X502716Y542239D01*
X498957Y537006D01*
X495655Y531215D01*
X492759Y525018D01*
X481685Y499059D01*
X477215Y490524D01*
X474472Y486714D01*
X471271Y483412D01*
X467461Y480822D01*
X462991Y479145D01*
X457708Y478535D01*
X452729Y479094D01*
X448259Y480618D01*
X444347Y483158D01*
X441045Y486562D01*
X438404Y490728D01*
X436473Y495706D01*
X435254Y501294D01*
X434848Y507492D01*
X435101Y512673D01*
X435864Y517550D01*
X437083Y522173D01*
X438708Y526542D01*
X440791Y530656D01*
X443230Y534568D01*
X445973Y538276D01*
X449072Y541782D01*
X438404Y550672D01*
X434543Y546608D01*
X431038Y542137D01*
X427939Y537210D01*
X425246Y531926D01*
X423113Y526288D01*
X421487Y520293D01*
X420471Y514045D01*
X420116Y507492D01*
X420471Y501040D01*
X421436Y494893D01*
X423011Y489153D01*
X425145Y483819D01*
X427888Y478942D01*
X431088Y474573D01*
X434746Y470763D01*
X438861Y467563D01*
X443382Y464972D01*
X448259Y463092D01*
X453440Y461924D01*
X458978Y461518D01*
X466547Y462229D01*
X473151Y464312D01*
X478840Y467461D01*
X483717Y471474D01*
X487883Y476148D01*
X491388Y481228D01*
X494334Y486511D01*
X496824Y491743D01*
X508558Y518515D01*
X510946Y523290D01*
X513486Y527608D01*
X516331Y531368D01*
X519633Y534466D01*
X523493Y536752D01*
X528116Y538226D01*
X533654Y538734D01*
X539140Y538175D01*
X544068Y536448D01*
X548487Y533704D01*
X552196Y529945D01*
X555193Y525272D01*
X557428Y519684D01*
X558850Y513232D01*
X559308Y505968D01*
X558952Y500126D01*
X557987Y494334D01*
X556361Y488746D01*
X554177Y483311D01*
X551484Y478129D01*
X548284Y473201D01*
X544576Y468579D01*
X540512Y464312D01*
X551942Y454151D01*
X556818Y459232D01*
X561187Y464718D01*
X564946Y470611D01*
X568147Y476910D01*
X570687Y483616D01*
X572516Y490677D01*
X573633Y498144D01*
X574040Y505968D01*
X573684Y513334D01*
X572566Y520242D01*
X570839Y526592D01*
X568452Y532434D01*
X565454Y537667D01*
X562000Y542290D01*
X557987Y546303D01*
X553567Y549605D01*
X548741Y552246D01*
X543560Y554177D01*
X538124Y555345D01*
G37*
G36*
X2383790Y2941828D02*
G01*
X2383790Y2921508D01*
X2289556Y2921508D01*
X2289556Y2907030D01*
X2308860Y2907030D01*
X2322169Y2906115D01*
X2335276Y2905760D01*
X2383790Y2905760D01*
X2383790Y2858262D01*
X2330450Y2894076D01*
X2308860Y2906014D01*
X2308860Y2907030D01*
X2289556Y2907030D01*
X2289556Y2903728D01*
X2386076Y2840482D01*
X2396998Y2840482D01*
X2396998Y2905760D01*
X2438400Y2905760D01*
X2438400Y2921508D01*
X2396998Y2921508D01*
X2396998Y2941828D01*
G37*
G36*
X2289556Y2836418D02*
G01*
X2289556Y2819400D01*
X2420874Y2780030D01*
X2420874Y2779268D01*
X2396388Y2771698D01*
X2371852Y2764536D01*
X2289556Y2739644D01*
X2289556Y2721864D01*
X2438400Y2769616D01*
X2438400Y2788920D01*
G37*
G36*
X2454910Y2718816D02*
G01*
X2454910Y2610866D01*
X2466340Y2610866D01*
X2466340Y2718816D01*
G37*
G36*
X2289556Y2601976D02*
G01*
X2289556Y2494026D01*
X2303780Y2494026D01*
X2303780Y2539492D01*
X2438400Y2539492D01*
X2438400Y2556510D01*
X2303780Y2556510D01*
X2303780Y2601976D01*
G37*
G36*
X2363470Y2480818D02*
G01*
X2356510Y2480614D01*
X2349804Y2480056D01*
X2343404Y2479141D01*
X2337257Y2477820D01*
X2331466Y2476195D01*
X2326030Y2474214D01*
X2320848Y2471928D01*
X2316022Y2469337D01*
X2311552Y2466441D01*
X2307437Y2463241D01*
X2303678Y2459736D01*
X2300224Y2456027D01*
X2297226Y2452014D01*
X2294534Y2447798D01*
X2292299Y2443327D01*
X2290419Y2438603D01*
X2288946Y2433726D01*
X2287879Y2428595D01*
X2287219Y2423312D01*
X2287016Y2417826D01*
X2301748Y2417826D01*
X2302002Y2422906D01*
X2302814Y2427732D01*
X2304186Y2432304D01*
X2306015Y2436672D01*
X2308402Y2440686D01*
X2311247Y2444445D01*
X2314549Y2447899D01*
X2318308Y2451049D01*
X2322525Y2453894D01*
X2327198Y2456383D01*
X2332278Y2458516D01*
X2337765Y2460294D01*
X2343607Y2461717D01*
X2349855Y2462733D01*
X2356510Y2463342D01*
X2363470Y2463546D01*
X2370429Y2463342D01*
X2377084Y2462733D01*
X2383383Y2461717D01*
X2389327Y2460294D01*
X2394915Y2458516D01*
X2400046Y2456383D01*
X2404821Y2453894D01*
X2409139Y2451049D01*
X2413000Y2447899D01*
X2416403Y2444445D01*
X2419350Y2440686D01*
X2421788Y2436672D01*
X2423668Y2432304D01*
X2425090Y2427732D01*
X2425903Y2422906D01*
X2426208Y2417826D01*
X2425903Y2412796D01*
X2425090Y2408021D01*
X2423668Y2403449D01*
X2421788Y2399131D01*
X2419350Y2395118D01*
X2416403Y2391410D01*
X2413000Y2387955D01*
X2409139Y2384806D01*
X2404821Y2382012D01*
X2400046Y2379522D01*
X2394915Y2377389D01*
X2389327Y2375611D01*
X2383383Y2374188D01*
X2377084Y2373172D01*
X2370429Y2372563D01*
X2363470Y2372360D01*
X2356510Y2372563D01*
X2349855Y2373172D01*
X2343607Y2374188D01*
X2337765Y2375611D01*
X2332278Y2377389D01*
X2327198Y2379522D01*
X2322525Y2382012D01*
X2318308Y2384806D01*
X2314549Y2387955D01*
X2311247Y2391410D01*
X2308402Y2395118D01*
X2306015Y2399131D01*
X2304186Y2403449D01*
X2302814Y2408021D01*
X2302002Y2412796D01*
X2301748Y2417826D01*
X2287016Y2417826D01*
X2287219Y2412390D01*
X2287879Y2407107D01*
X2288946Y2402027D01*
X2290419Y2397150D01*
X2292299Y2392476D01*
X2294534Y2388057D01*
X2297226Y2383790D01*
X2300224Y2379827D01*
X2303678Y2376119D01*
X2307437Y2372664D01*
X2311552Y2369464D01*
X2316022Y2366568D01*
X2320848Y2363978D01*
X2326030Y2361692D01*
X2331466Y2359710D01*
X2337257Y2358085D01*
X2343404Y2356764D01*
X2349804Y2355850D01*
X2356510Y2355291D01*
X2363470Y2355088D01*
X2370480Y2355291D01*
X2377186Y2355850D01*
X2383637Y2356764D01*
X2389784Y2358085D01*
X2395626Y2359710D01*
X2401163Y2361692D01*
X2406345Y2363978D01*
X2411272Y2366568D01*
X2415794Y2369464D01*
X2420010Y2372664D01*
X2423871Y2376119D01*
X2427325Y2379827D01*
X2430475Y2383790D01*
X2433167Y2388057D01*
X2435504Y2392476D01*
X2437434Y2397150D01*
X2438958Y2402027D01*
X2440076Y2407107D01*
X2440736Y2412390D01*
X2440940Y2417826D01*
X2440736Y2423312D01*
X2440076Y2428595D01*
X2438958Y2433726D01*
X2437434Y2438603D01*
X2435504Y2443327D01*
X2433167Y2447798D01*
X2430475Y2452014D01*
X2427325Y2456027D01*
X2423871Y2459736D01*
X2420010Y2463241D01*
X2415794Y2466441D01*
X2411272Y2469337D01*
X2406345Y2471928D01*
X2401163Y2474214D01*
X2395626Y2476195D01*
X2389784Y2477820D01*
X2383637Y2479141D01*
X2377186Y2480056D01*
X2370480Y2480614D01*
G37*
G36*
X2289556Y2322322D02*
G01*
X2289556Y2301748D01*
X2370836Y2272538D01*
X2386787Y2267508D01*
X2402586Y2262124D01*
X2402586Y2261108D01*
X2370836Y2250440D01*
X2289556Y2221230D01*
X2289556Y2200402D01*
X2438400Y2200402D01*
X2438400Y2215642D01*
X2347569Y2215591D01*
X2325370Y2214575D01*
X2309368Y2213610D01*
X2309368Y2214372D01*
X2343150Y2226310D01*
X2423160Y2255520D01*
X2423160Y2267204D01*
X2343150Y2296160D01*
X2309368Y2307844D01*
X2309368Y2308860D01*
X2331059Y2307488D01*
X2342286Y2306980D01*
X2352548Y2306828D01*
X2438400Y2306828D01*
X2438400Y2322322D01*
G37*
G36*
X2454910Y2177034D02*
G01*
X2454910Y2069084D01*
X2466340Y2069084D01*
X2466340Y2177034D01*
G37*
G36*
X2438400Y2060702D02*
G01*
X2372614Y2022348D01*
X2371242Y2027428D01*
X2369464Y2032152D01*
X2367330Y2036521D01*
X2364841Y2040585D01*
X2361996Y2044192D01*
X2358745Y2047443D01*
X2355088Y2050237D01*
X2351074Y2052574D01*
X2346655Y2054402D01*
X2341829Y2055774D01*
X2336596Y2056587D01*
X2330958Y2056892D01*
X2323744Y2056434D01*
X2317292Y2055164D01*
X2311654Y2053082D01*
X2306675Y2050237D01*
X2302408Y2046681D01*
X2298852Y2042464D01*
X2295855Y2037588D01*
X2293518Y2032152D01*
X2291740Y2026157D01*
X2290521Y2019655D01*
X2289810Y2012696D01*
X2289556Y2005330D01*
X2289556Y1976628D01*
X2303272Y1976628D01*
X2303272Y2002789D01*
X2303627Y2011222D01*
X2304745Y2018639D01*
X2306675Y2025040D01*
X2309520Y2030272D01*
X2313279Y2034438D01*
X2318054Y2037435D01*
X2323947Y2039264D01*
X2330958Y2039874D01*
X2337917Y2039264D01*
X2343912Y2037435D01*
X2348992Y2034438D01*
X2353106Y2030272D01*
X2356307Y2025040D01*
X2358593Y2018639D01*
X2359964Y2011222D01*
X2360422Y2002789D01*
X2360422Y1976628D01*
X2289556Y1976628D01*
X2289556Y1959864D01*
X2438400Y1959864D01*
X2438400Y1976628D01*
X2374138Y1976628D01*
X2374138Y2004568D01*
X2438400Y2041652D01*
G37*
G36*
X2289556Y1918462D02*
G01*
X2289556Y1901443D01*
X2438400Y1901443D01*
X2438400Y1918462D01*
G37*
G36*
X2454910Y1878075D02*
G01*
X2454910Y1770380D01*
X2466340Y1770380D01*
X2466340Y1878075D01*
G37*
G36*
X2390140Y1756664D02*
G01*
X2382316Y1756257D01*
X2375255Y1755089D01*
X2368905Y1753158D01*
X2363266Y1750618D01*
X2358339Y1747418D01*
X2354122Y1743659D01*
X2350566Y1739392D01*
X2347671Y1734667D01*
X2345436Y1729536D01*
X2343861Y1724050D01*
X2342946Y1718259D01*
X2342642Y1712214D01*
X2343099Y1705610D01*
X2344369Y1699717D01*
X2346401Y1694281D01*
X2348992Y1689100D01*
X2303780Y1693164D01*
X2303780Y1749552D01*
X2289556Y1749552D01*
X2289556Y1678432D01*
X2358644Y1673860D01*
X2364486Y1683004D01*
X2360625Y1689049D01*
X2357831Y1694891D01*
X2356154Y1701088D01*
X2355596Y1708150D01*
X2356205Y1715058D01*
X2357983Y1721256D01*
X2360930Y1726692D01*
X2364943Y1731264D01*
X2369972Y1734921D01*
X2375966Y1737664D01*
X2382875Y1739341D01*
X2390648Y1739900D01*
X2398623Y1739239D01*
X2405786Y1737309D01*
X2412034Y1734312D01*
X2417318Y1730298D01*
X2421534Y1725472D01*
X2424633Y1719986D01*
X2426563Y1713890D01*
X2427224Y1707388D01*
X2426868Y1701038D01*
X2425801Y1695246D01*
X2424176Y1690014D01*
X2422093Y1685289D01*
X2419553Y1680972D01*
X2416708Y1677009D01*
X2413660Y1673402D01*
X2410460Y1670050D01*
X2421382Y1661668D01*
X2425090Y1665681D01*
X2428595Y1670050D01*
X2431948Y1674926D01*
X2434894Y1680311D01*
X2437384Y1686306D01*
X2439263Y1693011D01*
X2440482Y1700428D01*
X2440940Y1708657D01*
X2440584Y1714754D01*
X2439416Y1720748D01*
X2437587Y1726539D01*
X2434996Y1732076D01*
X2431694Y1737207D01*
X2427732Y1741881D01*
X2423058Y1746097D01*
X2417775Y1749704D01*
X2411780Y1752650D01*
X2405176Y1754835D01*
X2397963Y1756206D01*
G37*
G36*
X2402840Y1646682D02*
G01*
X2395626Y1646123D01*
X2389225Y1644599D01*
X2383536Y1642160D01*
X2378506Y1638960D01*
X2374087Y1635201D01*
X2370175Y1630933D01*
X2366772Y1626311D01*
X2363724Y1621536D01*
X2362708Y1621536D01*
X2359812Y1624888D01*
X2356408Y1628292D01*
X2352446Y1631696D01*
X2348026Y1634794D01*
X2343150Y1637538D01*
X2337968Y1639671D01*
X2332431Y1641093D01*
X2326640Y1641602D01*
X2321052Y1641297D01*
X2315819Y1640332D01*
X2310892Y1638807D01*
X2306320Y1636725D01*
X2302205Y1634032D01*
X2298496Y1630832D01*
X2295296Y1627124D01*
X2292604Y1622856D01*
X2290419Y1618132D01*
X2288844Y1612950D01*
X2287879Y1607312D01*
X2287537Y1600962D01*
X2299970Y1600962D01*
X2300528Y1606905D01*
X2302154Y1612138D01*
X2304694Y1616608D01*
X2308047Y1620316D01*
X2312162Y1623263D01*
X2316784Y1625396D01*
X2321915Y1626666D01*
X2327402Y1627124D01*
X2335834Y1626107D01*
X2343861Y1623009D01*
X2351430Y1617929D01*
X2358390Y1610868D01*
X2355748Y1604365D01*
X2352852Y1598066D01*
X2349652Y1592224D01*
X2348308Y1590294D01*
X2365248Y1590294D01*
X2369566Y1600809D01*
X2374138Y1610410D01*
X2376627Y1614779D01*
X2379319Y1618691D01*
X2382266Y1622196D01*
X2385517Y1625193D01*
X2389073Y1627632D01*
X2393035Y1629410D01*
X2397455Y1630527D01*
X2402332Y1630933D01*
X2407818Y1630375D01*
X2412898Y1628800D01*
X2417368Y1626209D01*
X2421280Y1622704D01*
X2424430Y1618386D01*
X2426766Y1613255D01*
X2428240Y1607413D01*
X2428748Y1600962D01*
X2428189Y1594256D01*
X2426563Y1588109D01*
X2424023Y1582623D01*
X2420620Y1577898D01*
X2416454Y1574038D01*
X2411577Y1571142D01*
X2406192Y1569313D01*
X2400300Y1568704D01*
X2394813Y1569110D01*
X2389632Y1570278D01*
X2384704Y1572209D01*
X2380081Y1574749D01*
X2375865Y1577898D01*
X2371953Y1581556D01*
X2368397Y1585722D01*
X2365248Y1590294D01*
X2348308Y1590294D01*
X2346045Y1587042D01*
X2341880Y1582623D01*
X2337054Y1579270D01*
X2331516Y1577086D01*
X2325116Y1576324D01*
X2319731Y1576781D01*
X2314854Y1578152D01*
X2310587Y1580388D01*
X2306929Y1583334D01*
X2303983Y1586890D01*
X2301798Y1591106D01*
X2300427Y1595831D01*
X2299970Y1600962D01*
X2287537Y1600962D01*
X2287828Y1595628D01*
X2288743Y1590294D01*
X2290267Y1585315D01*
X2292299Y1580642D01*
X2294890Y1576374D01*
X2297938Y1572564D01*
X2301443Y1569212D01*
X2305456Y1566418D01*
X2309825Y1564132D01*
X2314549Y1562455D01*
X2319680Y1561439D01*
X2325116Y1561084D01*
X2330704Y1561490D01*
X2335936Y1562709D01*
X2340762Y1564640D01*
X2345182Y1567129D01*
X2349246Y1570177D01*
X2352903Y1573631D01*
X2356205Y1577390D01*
X2359152Y1581404D01*
X2359914Y1581404D01*
X2362962Y1576273D01*
X2366670Y1571294D01*
X2370937Y1566621D01*
X2375865Y1562404D01*
X2381351Y1558848D01*
X2387396Y1556105D01*
X2394102Y1554327D01*
X2401316Y1553718D01*
X2406954Y1554124D01*
X2412288Y1555292D01*
X2417267Y1557223D01*
X2421839Y1559864D01*
X2426055Y1563116D01*
X2429814Y1567027D01*
X2433066Y1571447D01*
X2435809Y1576425D01*
X2437993Y1581912D01*
X2439619Y1587804D01*
X2440584Y1594053D01*
X2440940Y1600708D01*
X2440584Y1607362D01*
X2439619Y1613662D01*
X2437993Y1619453D01*
X2435809Y1624838D01*
X2433066Y1629664D01*
X2429865Y1633982D01*
X2426258Y1637741D01*
X2422194Y1640839D01*
X2417775Y1643380D01*
X2413050Y1645157D01*
X2408072Y1646326D01*
G37*
G36*
X2438400Y1543812D02*
G01*
X2289556Y1492758D01*
X2289556Y1482852D01*
X2303780Y1482852D01*
X2303780Y1483614D01*
X2341575Y1494942D01*
X2354072Y1499108D01*
X2378202Y1506728D01*
X2378202Y1459738D01*
X2347823Y1469593D01*
X2303780Y1482852D01*
X2289556Y1482852D01*
X2289556Y1474216D01*
X2438400Y1423416D01*
X2438400Y1440180D01*
X2391410Y1455420D01*
X2391410Y1511046D01*
X2438400Y1525778D01*
G37*
G36*
X1815084Y693420D02*
G01*
X1815084Y662940D01*
X1679956Y662940D01*
X1679956Y650494D01*
X1683308Y644296D01*
X1686102Y637286D01*
X1688338Y629361D01*
X1690116Y620268D01*
X1701038Y620268D01*
X1701038Y646684D01*
X1815084Y646684D01*
X1815084Y613156D01*
X1828800Y613156D01*
X1828800Y693420D01*
G37*
G36*
X1679956Y574548D02*
G01*
X1679956Y553720D01*
X1761236Y524764D01*
X1792986Y514350D01*
X1792986Y513334D01*
X1761236Y502412D01*
X1679956Y473201D01*
X1679956Y452628D01*
X1828800Y452628D01*
X1828800Y467868D01*
X1737969Y467817D01*
X1715770Y466801D01*
X1699768Y465835D01*
X1699768Y466598D01*
X1733550Y478282D01*
X1813560Y507492D01*
X1813560Y519176D01*
X1733550Y548132D01*
X1699768Y560070D01*
X1699768Y560832D01*
X1732686Y559003D01*
X1742948Y558800D01*
X1828800Y558800D01*
X1828800Y574548D01*
G37*
G36*
X1547876Y709168D02*
G01*
X1547977Y660603D01*
X1549146Y642112D01*
X1538986Y652627D01*
X1528978Y662279D01*
X1519224Y671068D01*
X1509623Y678891D01*
X1500124Y685698D01*
X1490776Y691438D01*
X1481531Y695960D01*
X1476908Y697788D01*
X1472336Y699312D01*
X1467764Y700481D01*
X1463243Y701344D01*
X1458671Y701903D01*
X1454150Y702056D01*
X1447749Y701700D01*
X1441754Y700735D01*
X1436217Y699109D01*
X1431137Y696874D01*
X1426565Y694029D01*
X1422552Y690626D01*
X1419047Y686663D01*
X1416100Y682193D01*
X1413764Y677214D01*
X1412087Y671728D01*
X1411071Y665784D01*
X1410716Y659384D01*
X1411122Y652678D01*
X1412290Y646430D01*
X1414170Y640638D01*
X1416710Y635203D01*
X1419860Y630072D01*
X1423568Y625144D01*
X1427835Y620471D01*
X1432560Y615950D01*
X1441704Y625856D01*
X1438097Y629107D01*
X1434795Y632612D01*
X1431798Y636270D01*
X1429207Y640181D01*
X1427124Y644245D01*
X1425498Y648462D01*
X1424533Y652830D01*
X1424178Y657352D01*
X1424787Y664108D01*
X1426514Y669950D01*
X1429258Y674827D01*
X1432966Y678789D01*
X1437487Y681888D01*
X1442720Y684072D01*
X1448562Y685393D01*
X1454912Y685800D01*
X1458772Y685647D01*
X1462735Y685139D01*
X1466799Y684326D01*
X1470914Y683209D01*
X1475130Y681736D01*
X1483817Y677773D01*
X1492910Y672388D01*
X1502511Y665632D01*
X1512570Y657453D01*
X1523136Y647750D01*
X1534312Y636574D01*
X1552194Y616966D01*
X1562100Y616966D01*
X1562100Y709168D01*
G37*
G36*
X1413256Y587248D02*
G01*
X1413256Y566420D01*
X1494536Y537464D01*
X1526286Y527050D01*
X1526286Y526034D01*
X1494536Y515112D01*
X1413256Y485901D01*
X1413256Y465328D01*
X1562100Y465328D01*
X1562100Y480568D01*
X1471269Y480517D01*
X1449070Y479501D01*
X1433068Y478535D01*
X1433068Y479298D01*
X1466850Y490982D01*
X1546860Y520192D01*
X1546860Y531876D01*
X1466850Y560832D01*
X1433068Y572770D01*
X1433068Y573532D01*
X1465986Y571703D01*
X1476248Y571500D01*
X1562100Y571500D01*
X1562100Y587248D01*
G37*
D23*
X1650492Y3430778D02*
G01*
X1640078Y3425444D01*
X1629663Y3415029D01*
X1624584Y3404870D01*
X1624584Y3384042D01*
X1629663Y3373628D01*
X1640078Y3363213D01*
X1650492Y3357879D01*
X1666239Y3352800D01*
X1692147Y3352800D01*
X1707642Y3357879D01*
X1718055Y3363213D01*
X1728470Y3373628D01*
X1733550Y3384042D01*
X1733550Y3404870D01*
X1728470Y3415029D01*
X1718055Y3425444D01*
X1707642Y3430778D01*
X1624584Y3475481D02*
G01*
X1624584Y3532631D01*
X1666239Y3501389D01*
X1666239Y3516884D01*
X1671320Y3527297D01*
X1676400Y3532631D01*
X1692147Y3537712D01*
X1702562Y3537712D01*
X1718055Y3532631D01*
X1728470Y3522218D01*
X1733550Y3506470D01*
X1733550Y3490976D01*
X1728470Y3475481D01*
X1723389Y3470147D01*
X1712976Y3465068D01*
X1868678Y2295144D02*
G01*
X1858263Y2284729D01*
X1853184Y2269236D01*
X1853184Y2248407D01*
X1858263Y2232913D01*
X1868678Y2222500D01*
X1879092Y2222500D01*
X1889505Y2227579D01*
X1894839Y2232913D01*
X1899920Y2243328D01*
X1910334Y2274570D01*
X1915413Y2284729D01*
X1920747Y2290063D01*
X1931161Y2295144D01*
X1946656Y2295144D01*
X1957070Y2284729D01*
X1962150Y2269236D01*
X1962150Y2248407D01*
X1957070Y2232913D01*
X1946656Y2222500D01*
X1874012Y2329434D02*
G01*
X1868678Y2339847D01*
X1853184Y2355595D01*
X1962150Y2355595D01*
X965200Y3531615D02*
G01*
X965200Y3422650D01*
X999489Y3531615D02*
G01*
X999489Y3422650D01*
X999489Y3531615D02*
G01*
X1046226Y3531615D01*
X1061720Y3526536D01*
X1067054Y3521202D01*
X1072134Y3510787D01*
X1072134Y3500373D01*
X1067054Y3489960D01*
X1061720Y3484879D01*
X1046226Y3479800D01*
X999489Y3479800D01*
X1035812Y3479800D02*
G01*
X1072134Y3422650D01*
X1106423Y3386073D02*
G01*
X1200150Y3386073D01*
X1307084Y3516121D02*
G01*
X1296670Y3526536D01*
X1281176Y3531615D01*
X1260347Y3531615D01*
X1244600Y3526536D01*
X1234439Y3516121D01*
X1234439Y3505707D01*
X1239520Y3495294D01*
X1244600Y3489960D01*
X1255013Y3484879D01*
X1286255Y3474465D01*
X1296670Y3469386D01*
X1301750Y3464052D01*
X1307084Y3453637D01*
X1307084Y3438144D01*
X1296670Y3427729D01*
X1281176Y3422650D01*
X1260347Y3422650D01*
X1244600Y3427729D01*
X1234439Y3438144D01*
X1341373Y3531615D02*
G01*
X1341373Y3422650D01*
X1341373Y3531615D02*
G01*
X1408937Y3531615D01*
X1341373Y3479800D02*
G01*
X1383029Y3479800D01*
X1341373Y3422650D02*
G01*
X1408937Y3422650D01*
X1443228Y3531615D02*
G01*
X1443228Y3422650D01*
X1443228Y3531615D02*
G01*
X1515871Y3422650D01*
X1515871Y3531615D02*
G01*
X1515871Y3422650D01*
X1193800Y2439415D02*
G01*
X1193800Y2361437D01*
X1198879Y2345944D01*
X1209294Y2335529D01*
X1225042Y2330450D01*
X1235455Y2330450D01*
X1250950Y2335529D01*
X1261363Y2345944D01*
X1266444Y2361437D01*
X1266444Y2439415D01*
X1311147Y2439415D02*
G01*
X1368297Y2439415D01*
X1337310Y2397760D01*
X1352804Y2397760D01*
X1363218Y2392679D01*
X1368297Y2387600D01*
X1373631Y2371852D01*
X1373631Y2361437D01*
X1368297Y2345944D01*
X1357884Y2335529D01*
X1342389Y2330450D01*
X1326895Y2330450D01*
X1311147Y2335529D01*
X1306068Y2340610D01*
X1300734Y2351023D01*
X1908302Y1250442D02*
G01*
X1902968Y1260855D01*
X1892554Y1271270D01*
X1882394Y1276350D01*
X1861565Y1276350D01*
X1851152Y1271270D01*
X1840737Y1260855D01*
X1835404Y1250442D01*
X1830323Y1234694D01*
X1830323Y1208786D01*
X1835404Y1193292D01*
X1840737Y1182878D01*
X1851152Y1172463D01*
X1861565Y1167384D01*
X1882394Y1167384D01*
X1892554Y1172463D01*
X1902968Y1182878D01*
X1908302Y1193292D01*
X1942591Y1255521D02*
G01*
X1953006Y1260855D01*
X1968500Y1276350D01*
X1968500Y1167384D01*
X1309878Y2819907D02*
G01*
X1304544Y2830321D01*
X1294129Y2840736D01*
X1283970Y2845815D01*
X1263142Y2845815D01*
X1252728Y2840736D01*
X1242313Y2830321D01*
X1236979Y2819907D01*
X1231900Y2804160D01*
X1231900Y2778252D01*
X1236979Y2762757D01*
X1242313Y2752344D01*
X1252728Y2741929D01*
X1263142Y2736850D01*
X1283970Y2736850D01*
X1294129Y2741929D01*
X1304544Y2752344D01*
X1309878Y2762757D01*
X1349247Y2819907D02*
G01*
X1349247Y2824987D01*
X1354581Y2835402D01*
X1359662Y2840736D01*
X1370076Y2845815D01*
X1390904Y2845815D01*
X1401318Y2840736D01*
X1406397Y2835402D01*
X1411731Y2824987D01*
X1411731Y2814573D01*
X1406397Y2804160D01*
X1395984Y2788665D01*
X1344168Y2736850D01*
X1416812Y2736850D01*
X1535684Y2870200D02*
G01*
X1644650Y2870200D01*
X1644650Y2870200D02*
G01*
X1644650Y2932429D01*
X1535684Y2966720D02*
G01*
X1644650Y2966720D01*
X1535684Y2966720D02*
G01*
X1535684Y3034284D01*
X1587500Y2966720D02*
G01*
X1587500Y3008376D01*
X1644650Y2966720D02*
G01*
X1644650Y3034284D01*
X1535684Y3068573D02*
G01*
X1644650Y3068573D01*
X1535684Y3068573D02*
G01*
X1535684Y3105150D01*
X1540763Y3120644D01*
X1551178Y3131057D01*
X1561592Y3136137D01*
X1577339Y3141471D01*
X1603247Y3141471D01*
X1618742Y3136137D01*
X1629155Y3131057D01*
X1639570Y3120644D01*
X1644650Y3105150D01*
X1644650Y3068573D01*
X1556512Y3175762D02*
G01*
X1551178Y3186176D01*
X1535684Y3201670D01*
X1644650Y3201670D01*
X127000Y3163315D02*
G01*
X127000Y3054350D01*
X127000Y3054350D02*
G01*
X189229Y3054350D01*
X223520Y3163315D02*
G01*
X223520Y3054350D01*
X223520Y3163315D02*
G01*
X291084Y3163315D01*
X223520Y3111500D02*
G01*
X265176Y3111500D01*
X223520Y3054350D02*
G01*
X291084Y3054350D01*
X325373Y3163315D02*
G01*
X325373Y3054350D01*
X325373Y3163315D02*
G01*
X361950Y3163315D01*
X377444Y3158236D01*
X387857Y3147821D01*
X392937Y3137407D01*
X398271Y3121660D01*
X398271Y3095752D01*
X392937Y3080257D01*
X387857Y3069844D01*
X377444Y3059429D01*
X361950Y3054350D01*
X325373Y3054350D01*
X442976Y3163315D02*
G01*
X500126Y3163315D01*
X468884Y3121660D01*
X484378Y3121660D01*
X494792Y3116579D01*
X500126Y3111500D01*
X505205Y3095752D01*
X505205Y3085337D01*
X500126Y3069844D01*
X489712Y3059429D01*
X473963Y3054350D01*
X458470Y3054350D01*
X442976Y3059429D01*
X437642Y3064510D01*
X432562Y3074923D01*
X139700Y3823715D02*
G01*
X139700Y3714750D01*
X139700Y3714750D02*
G01*
X201929Y3714750D01*
X236220Y3823715D02*
G01*
X236220Y3714750D01*
X236220Y3823715D02*
G01*
X303784Y3823715D01*
X236220Y3771900D02*
G01*
X277876Y3771900D01*
X236220Y3714750D02*
G01*
X303784Y3714750D01*
X338073Y3823715D02*
G01*
X338073Y3714750D01*
X338073Y3823715D02*
G01*
X374650Y3823715D01*
X390144Y3818636D01*
X400557Y3808221D01*
X405637Y3797807D01*
X410971Y3782060D01*
X410971Y3756152D01*
X405637Y3740657D01*
X400557Y3730244D01*
X390144Y3719829D01*
X374650Y3714750D01*
X338073Y3714750D01*
X497078Y3823715D02*
G01*
X445262Y3751071D01*
X523239Y3751071D01*
X497078Y3823715D02*
G01*
X497078Y3714750D01*
X1045705Y3188715D02*
G01*
X1045705Y3079750D01*
X1045705Y3188715D02*
G01*
X1092441Y3188715D01*
X1107935Y3183636D01*
X1113269Y3178302D01*
X1118349Y3167887D01*
X1118349Y3157473D01*
X1113269Y3147060D01*
X1107935Y3141979D01*
X1092441Y3136900D01*
X1045705Y3136900D01*
X1082027Y3136900D02*
G01*
X1118349Y3079750D01*
X1152639Y3167887D02*
G01*
X1163053Y3173221D01*
X1178801Y3188715D01*
X1178801Y3079750D01*
X2044700Y3290315D02*
G01*
X2044700Y3181350D01*
X2044700Y3290315D02*
G01*
X2091436Y3290315D01*
X2106929Y3285236D01*
X2112263Y3279902D01*
X2117343Y3269487D01*
X2117343Y3259073D01*
X2112263Y3248660D01*
X2106929Y3243579D01*
X2091436Y3238500D01*
X2044700Y3238500D01*
X2081022Y3238500D02*
G01*
X2117343Y3181350D01*
X2156968Y3264407D02*
G01*
X2156968Y3269487D01*
X2162047Y3279902D01*
X2167381Y3285236D01*
X2177795Y3290315D01*
X2198370Y3290315D01*
X2208784Y3285236D01*
X2214118Y3279902D01*
X2219197Y3269487D01*
X2219197Y3259073D01*
X2214118Y3248660D01*
X2203704Y3233165D01*
X2151634Y3181350D01*
X2224531Y3181350D01*
X75184Y1473200D02*
G01*
X184150Y1473200D01*
X75184Y1473200D02*
G01*
X75184Y1519936D01*
X80263Y1535429D01*
X85597Y1540763D01*
X96012Y1545844D01*
X106426Y1545844D01*
X116839Y1540763D01*
X121920Y1535429D01*
X127000Y1519936D01*
X127000Y1473200D01*
X127000Y1509521D02*
G01*
X184150Y1545844D01*
X75184Y1590547D02*
G01*
X75184Y1647697D01*
X116839Y1616710D01*
X116839Y1632204D01*
X121920Y1642618D01*
X127000Y1647697D01*
X142747Y1653031D01*
X153162Y1653031D01*
X168655Y1647697D01*
X179070Y1637284D01*
X184150Y1621789D01*
X184150Y1606295D01*
X179070Y1590547D01*
X173989Y1585468D01*
X163576Y1580134D01*
X646684Y1981200D02*
G01*
X755650Y1981200D01*
X646684Y1981200D02*
G01*
X646684Y2027936D01*
X651763Y2043429D01*
X657097Y2048763D01*
X667512Y2053844D01*
X677926Y2053844D01*
X688339Y2048763D01*
X693420Y2043429D01*
X698500Y2027936D01*
X698500Y1981200D01*
X698500Y2017521D02*
G01*
X755650Y2053844D01*
X646684Y2140204D02*
G01*
X719328Y2088134D01*
X719328Y2166112D01*
X646684Y2140204D02*
G01*
X755650Y2140204D01*
X430784Y965200D02*
G01*
X539750Y965200D01*
X430784Y965200D02*
G01*
X430784Y1011936D01*
X435863Y1027429D01*
X441197Y1032763D01*
X451612Y1037844D01*
X462026Y1037844D01*
X472439Y1032763D01*
X477520Y1027429D01*
X482600Y1011936D01*
X482600Y965200D01*
X482600Y1001521D02*
G01*
X539750Y1037844D01*
X430784Y1134618D02*
G01*
X430784Y1082547D01*
X477520Y1077468D01*
X472439Y1082547D01*
X467105Y1098295D01*
X467105Y1113789D01*
X472439Y1129284D01*
X482600Y1139697D01*
X498347Y1145031D01*
X508762Y1145031D01*
X524255Y1139697D01*
X534670Y1129284D01*
X539750Y1113789D01*
X539750Y1098295D01*
X534670Y1082547D01*
X529589Y1077468D01*
X519176Y1072134D01*
X673100Y3582415D02*
G01*
X673100Y3473450D01*
X673100Y3582415D02*
G01*
X719836Y3582415D01*
X735329Y3577336D01*
X740663Y3572002D01*
X745744Y3561587D01*
X745744Y3551173D01*
X740663Y3540760D01*
X735329Y3535679D01*
X719836Y3530600D01*
X673100Y3530600D01*
X709421Y3530600D02*
G01*
X745744Y3473450D01*
X842518Y3566921D02*
G01*
X837184Y3577336D01*
X821689Y3582415D01*
X811276Y3582415D01*
X795781Y3577336D01*
X785368Y3561587D01*
X780034Y3535679D01*
X780034Y3509771D01*
X785368Y3488944D01*
X795781Y3478529D01*
X811276Y3473450D01*
X816610Y3473450D01*
X832104Y3478529D01*
X842518Y3488944D01*
X847597Y3504437D01*
X847597Y3509771D01*
X842518Y3525265D01*
X832104Y3535679D01*
X816610Y3540760D01*
X811276Y3540760D01*
X795781Y3535679D01*
X785368Y3525265D01*
X780034Y3509771D01*
X2122677Y927607D02*
G01*
X2117343Y938021D01*
X2106929Y948436D01*
X2096770Y953515D01*
X2075941Y953515D01*
X2065527Y948436D01*
X2055113Y938021D01*
X2049779Y927607D01*
X2044700Y911860D01*
X2044700Y885952D01*
X2049779Y870457D01*
X2055113Y860044D01*
X2065527Y849629D01*
X2075941Y844550D01*
X2096770Y844550D01*
X2106929Y849629D01*
X2117343Y860044D01*
X2122677Y870457D01*
X2156968Y953515D02*
G01*
X2156968Y844550D01*
X2156968Y953515D02*
G01*
X2229611Y844550D01*
X2229611Y953515D02*
G01*
X2229611Y844550D01*
X2263902Y932687D02*
G01*
X2274315Y938021D01*
X2289809Y953515D01*
X2289809Y844550D01*
X1154684Y229870D02*
G01*
X1237742Y229870D01*
X1253489Y224536D01*
X1258570Y219455D01*
X1263650Y209042D01*
X1263650Y198628D01*
X1258570Y188213D01*
X1253489Y182879D01*
X1237742Y177800D01*
X1227328Y177800D01*
X1180592Y269239D02*
G01*
X1175512Y269239D01*
X1165097Y274320D01*
X1159763Y279654D01*
X1154684Y290068D01*
X1154684Y310895D01*
X1159763Y321310D01*
X1165097Y326389D01*
X1175512Y331470D01*
X1185926Y331470D01*
X1196339Y326389D01*
X1211834Y315976D01*
X1263650Y264160D01*
X1263650Y336804D01*
G36*
X2062530Y1301089D02*
G01*
X2054656Y1291742D01*
X2047493Y1281836D01*
X2040991Y1271473D01*
X2035200Y1260703D01*
X2032558Y1255217D01*
X2027936Y1243888D01*
X2024024Y1232306D01*
X2020976Y1220470D01*
X2019706Y1214526D01*
X2017877Y1202436D01*
X2016810Y1190244D01*
X2016607Y1178052D01*
X2017217Y1165860D01*
X2018690Y1153718D01*
X2019706Y1147673D01*
X2022398Y1135735D01*
X2025904Y1124051D01*
X2030171Y1112621D01*
X2032558Y1106982D01*
X2037994Y1096010D01*
X2044141Y1085494D01*
X2050999Y1075334D01*
X2058517Y1065733D01*
X2062480Y1061110D01*
G37*
D10*
X1829450Y3894503D02*
G01*
X2031349Y3894503D01*
X1829450Y3344496D02*
G01*
X2031349Y3344496D01*
X1770397Y3344496D02*
G01*
X1770397Y3894503D01*
X2090402Y3344496D02*
G01*
X2090402Y3894503D01*
X1770397Y3344496D02*
G01*
X1829450Y3344496D01*
X2031349Y3344496D02*
G01*
X2082800Y3344496D01*
X1770397Y3894503D02*
G01*
X1829450Y3894503D01*
X2031349Y3894503D02*
G01*
X2090402Y3894503D01*
D21*
X1993900Y2057400D02*
G01*
X1993900Y1866900D01*
X2247900Y1866900D01*
X2247900Y2628900D01*
X1993900Y2628900D01*
D22*
X1993900Y2628900D02*
G01*
X1993900Y2057400D01*
D10*
X970000Y3571100D02*
G01*
X1569999Y3571100D01*
X970000Y3571100D02*
G01*
X970000Y3617785D01*
X970000Y3824411D02*
G01*
X970000Y3971099D01*
X970000Y3971099D02*
G01*
X1569999Y3971099D01*
X1569999Y3571100D02*
G01*
X1569999Y3607986D01*
X1569999Y3834213D02*
G01*
X1569999Y3971099D01*
X1181176Y2286099D02*
G01*
X971354Y2286099D01*
X1384376Y2286099D02*
G01*
X1594045Y2286099D01*
X1594045Y1346100D02*
G01*
X971354Y1346100D01*
X1574876Y2127219D02*
G01*
X1574876Y2012980D01*
X1574876Y1873219D02*
G01*
X1574876Y1758980D01*
X1574876Y1619219D02*
G01*
X1574876Y1504980D01*
X990676Y2127415D02*
G01*
X990676Y2012784D01*
X990676Y1873415D02*
G01*
X990676Y1758784D01*
X990676Y1619415D02*
G01*
X990676Y1504784D01*
X2242499Y1061100D02*
G01*
X2326319Y1061100D01*
X2283139Y1099200D02*
G01*
X2283139Y1020460D01*
X1069728Y2503500D02*
G01*
X1521045Y2503500D01*
X1069728Y2703499D02*
G01*
X1521045Y2703499D01*
X2001052Y3216219D02*
G01*
X2030516Y3215840D01*
X1803212Y3218345D02*
G01*
X1835764Y3218345D01*
X473019Y2723347D02*
G01*
X472640Y2693883D01*
X475145Y2921187D02*
G01*
X475145Y2888635D01*
X473019Y3345647D02*
G01*
X472640Y3316183D01*
X475145Y3543487D02*
G01*
X475145Y3510935D01*
X1231900Y2933700D02*
G01*
X1295400Y2933700D01*
X876300Y2933700D02*
G01*
X812800Y2933700D01*
X889088Y3028695D02*
G01*
X1219085Y3028695D01*
X1219085Y2838704D01*
X889088Y2838704D01*
X889088Y3028695D01*
X2298700Y3302000D02*
G01*
X2298700Y3238500D01*
X2298700Y3657600D02*
G01*
X2298700Y3721100D01*
X2393695Y3644811D02*
G01*
X2393695Y3314814D01*
X2203704Y3314814D01*
X2203704Y3644811D01*
X2393695Y3644811D01*
X228600Y1917700D02*
G01*
X228600Y1854200D01*
X228600Y2273300D02*
G01*
X228600Y2336800D01*
X323595Y2260511D02*
G01*
X323595Y1930514D01*
X133604Y1930514D01*
X133604Y2260511D01*
X323595Y2260511D01*
X508000Y1917700D02*
G01*
X508000Y1854200D01*
X508000Y2273300D02*
G01*
X508000Y2336800D01*
X602995Y2260511D02*
G01*
X602995Y1930514D01*
X413004Y1930514D01*
X413004Y2260511D01*
X602995Y2260511D01*
X292100Y1231900D02*
G01*
X292100Y1295400D01*
X292100Y876300D02*
G01*
X292100Y812800D01*
X197104Y889088D02*
G01*
X197104Y1219085D01*
X387095Y1219085D01*
X387095Y889088D01*
X197104Y889088D01*
X1231900Y3340100D02*
G01*
X1295400Y3340100D01*
X876300Y3340100D02*
G01*
X812800Y3340100D01*
X889088Y3435095D02*
G01*
X1219085Y3435095D01*
X1219085Y3245104D01*
X889088Y3245104D01*
X889088Y3435095D01*
X2097176Y335000D02*
G01*
X2097176Y135001D01*
X2297175Y335000D02*
G01*
X2297175Y135001D01*
X2397175Y235000D02*
G01*
X2397175Y435000D01*
X1997176Y435000D01*
X1997176Y235000D01*
X2497175Y805002D02*
G01*
X1897176Y805002D01*
X2497175Y35001D02*
G01*
X1897176Y35001D01*
X2497175Y805002D02*
G01*
X2497175Y35001D01*
X1897176Y805002D02*
G01*
X1897176Y35001D01*
X1803400Y152400D02*
G01*
X1295400Y152400D01*
X1295400Y406400D01*
X1803400Y406400D01*
X1803400Y152400D01*
D21*
X101600Y152400D02*
G01*
X101600Y406400D01*
X1117600Y406400D01*
X1117600Y152400D01*
X927100Y152400D01*
D22*
X101600Y152400D02*
G01*
X927100Y152400D01*
D10*
G75*
G01*
X1038896Y3971100D02*
G02*
X1501539Y3971100I231321J-86337D01*
G75*
G01*
X1384376Y2286099D02*
G02*
X1181176Y2286099I-101600J0D01*
G75*
G01*
X2222627Y981202D02*
G03*
X2219325Y981202I-1651J199993D01*
G75*
G01*
X1828195Y3155592D02*
G03*
X1821010Y2920705I89504J-120291D01*
G75*
G01*
X2011307Y2917975D02*
G03*
X2014309Y3150164I-93608J117324D01*
G75*
G01*
X1803212Y3218345D02*
G03*
X1854398Y2828889I114488J-183044D01*
G75*
G01*
X1981200Y2832100D02*
G03*
X2030517Y3215841I-63498J203200D01*
G75*
G01*
X412392Y2896205D02*
G03*
X177505Y2903390I-120291J-89504D01*
G75*
G01*
X174775Y2713093D02*
G03*
X406964Y2710091I117324J93608D01*
G75*
G01*
X475145Y2921188D02*
G03*
X85689Y2870002I-183044J-114488D01*
G75*
G01*
X88900Y2743200D02*
G03*
X472641Y2693883I203200J63498D01*
G75*
G01*
X412392Y3518505D02*
G03*
X177505Y3525690I-120291J-89504D01*
G75*
G01*
X174775Y3335393D02*
G03*
X406964Y3332391I117324J93608D01*
G75*
G01*
X475145Y3543488D02*
G03*
X85689Y3492302I-183044J-114488D01*
G75*
G01*
X88900Y3365500D02*
G03*
X472641Y3316183I203200J63498D01*
M02*
