G04 Layer: TopLayer*
G04 EasyEDA v6.4.31, 2022-01-29 23:58:21*
G04 2823f7ec020141a2b4db78c869935daf,00a5ad12733442db97615573759eb5db,10*
G04 Gerber Generator version 0.2*
G04 Scale: 100 percent, Rotated: No, Reflected: No *
G04 Dimensions in millimeters *
G04 leading zeros omitted , absolute positions ,4 integer and 5 decimal *
%FSLAX45Y45*%
%MOMM*%

%ADD10C,0.2540*%
%ADD11C,0.5000*%
%ADD12C,1.6000*%
%ADD13C,1.8000*%
%ADD14R,1.8000X1.5748*%
%ADD15R,1.8000X1.8000*%
%ADD16C,1.2000*%
%ADD17C,1.5240*%
%ADD18R,1.5748X1.5748*%
%ADD19C,1.5748*%

%LPD*%
D10*
X1663700Y1943100D02*
G01*
X1282700Y2324100D01*
X1282700Y3009900D01*
X1549400Y3276600D01*
X1549400Y3721100D01*
X1524000Y3721100D01*
D11*
X2147570Y1181100D02*
G01*
X1841500Y1487170D01*
X1841500Y2307336D01*
X1545336Y2603500D01*
X2297429Y1181100D02*
G01*
X2297429Y1322070D01*
X1943100Y1676400D01*
X1943100Y2070100D01*
X2120900Y2247900D01*
D10*
X508000Y2460497D02*
G01*
X546100Y2498597D01*
X546100Y3302000D01*
X419100Y3429000D01*
D11*
X165100Y2806700D02*
G01*
X368300Y2603500D01*
X368300Y1495297D01*
X292100Y1419097D01*
X2425700Y1549400D02*
G01*
X2120900Y1854200D01*
X2120900Y1993900D01*
X2297175Y635000D02*
G01*
X2425700Y763523D01*
X2425700Y1549400D01*
X2298700Y3114774D02*
G01*
X2298700Y2425700D01*
X2120900Y2247900D01*
D10*
X1419123Y3340100D02*
G01*
X901700Y2822676D01*
X901700Y2197100D01*
D11*
X689102Y3340100D02*
G01*
X689076Y3340074D01*
X689076Y2933700D01*
X292100Y1419097D02*
G01*
X736600Y974597D01*
X736600Y279400D01*
D10*
X482600Y279400D02*
G01*
X482600Y498576D01*
X292100Y689076D01*
D11*
X990600Y279400D02*
G01*
X990600Y1346200D01*
X901700Y1435100D01*
X1917700Y3162300D02*
G01*
X1930400Y3175000D01*
X1930400Y3494506D01*
X1545412Y2603500D02*
G01*
X1545412Y2790012D01*
X1917700Y3162300D01*
X2147493Y1181100D02*
G01*
X2147493Y685469D01*
X2097024Y635000D01*
D12*
G01*
X1930400Y3744493D03*
G01*
X1930400Y3494506D03*
D13*
G01*
X2120900Y2501900D03*
G01*
X2120900Y2247900D03*
D14*
G01*
X2120900Y1993900D03*
G36*
X1434000Y3811099D02*
G01*
X1613999Y3811099D01*
X1613999Y3631100D01*
X1434000Y3631100D01*
G37*
D13*
G01*
X1270000Y3721100D03*
G01*
X1016000Y3721100D03*
G01*
X901700Y2197100D03*
G01*
X901700Y1943100D03*
G01*
X1663700Y1943100D03*
G01*
X1663700Y2197100D03*
G01*
X901700Y1689100D03*
G01*
X901700Y1435100D03*
G01*
X1663700Y1689100D03*
G01*
X1663700Y1435100D03*
D16*
G01*
X2147493Y1181100D03*
G01*
X2297506Y1181100D03*
D12*
G01*
X1045413Y2603500D03*
G01*
X1545412Y2603500D03*
D17*
G01*
X1917700Y2908300D03*
G01*
X1917700Y3162300D03*
G01*
X165100Y2806700D03*
G01*
X419100Y2806700D03*
G01*
X165100Y3429000D03*
G01*
X419100Y3429000D03*
G01*
X1419097Y2933700D03*
G01*
X689076Y2933700D03*
G01*
X2298700Y3114776D03*
G01*
X2298700Y3844797D03*
G01*
X228600Y1730476D03*
G01*
X228600Y2460497D03*
G01*
X508000Y1730476D03*
G01*
X508000Y2460497D03*
G01*
X292100Y1419097D03*
G01*
X292100Y689076D03*
G01*
X1419123Y3340100D03*
G01*
X689102Y3340100D03*
G01*
X2297175Y635000D03*
G01*
X2097024Y635000D03*
D13*
G01*
X1422400Y279400D03*
D15*
G01*
X1676400Y279400D03*
D18*
G01*
X990600Y279400D03*
D19*
G01*
X736600Y279400D03*
G01*
X482600Y279400D03*
G01*
X228600Y279400D03*
M02*
